name Walk1.mot
datacolumns 19
datarows 20
range 1.22000000 1.31500000
endheader

                time	   L_ground_force_vx	   L_ground_force_vy	   L_ground_force_vz	   L_ground_force_px	   L_ground_force_py	   L_ground_force_pz	   R_ground_force_vx	   R_ground_force_vy	   R_ground_force_vz	   R_ground_force_px	   R_ground_force_py	   R_ground_force_pz	   L_ground_torque_x	   L_ground_torque_y	   L_ground_torque_z	   R_ground_torque_x	   R_ground_torque_y	   R_ground_torque_z	
          1.22000000	         -6.48373644	         98.11263279	         -4.90792232	         -0.04019172	          0.00000000	         -0.01937930	         -0.00000000	          0.00000000	          0.00000000	          0.00000000	          0.00000000	          0.00000000	          0.00000000	          0.29252101	          0.00000000	          0.00000000	          0.00000000	          0.00000000	
          1.22500000	        -11.36858225	        140.72278793	         -6.27390463	         -0.11202408	          0.00000000	         -0.02695384	         -0.00000000	          0.00000000	          0.00000000	          0.00000000	          0.00000000	          0.00000000	          0.00000000	          0.49848469	          0.00000000	          0.00000000	          0.00000000	          0.00000000	
          1.23000000	        -17.48233470	        188.63460288	         -7.34877568	         -0.17476243	          0.00000000	         -0.03437628	         -0.00000000	          0.00000000	          0.00000000	          0.00000000	          0.00000000	          0.00000000	          0.00000000	          0.72308764	          0.00000000	          0.00000000	          0.00000000	          0.00000000	
          1.23500000	        -24.78750638	        239.62847742	         -7.97716233	         -0.22643233	          0.00000000	         -0.04119349	         -0.00000000	          0.00000000	          0.00000000	          0.00000000	          0.00000000	          0.00000000	          0.00000000	          0.96056164	          0.00000000	          0.00000000	          0.00000000	          0.00000000	
          1.24000000	        -33.06041226	        290.95952910	         -8.06181881	         -0.26672968	          0.00000000	         -0.04710447	         -0.00000000	          0.00000000	          0.00000000	          0.00000000	          0.00000000	          0.00000000	          0.00000000	          1.20200349	          0.00000000	          0.00000000	          0.00000000	          0.00000000	
          1.24500000	        -41.85276170	        340.17507928	         -7.55749538	         -0.29638429	          0.00000000	         -0.05197448	         -0.00000000	          0.00000000	          0.00000000	          0.00000000	          0.00000000	          0.00000000	          0.00000000	          1.43641361	          0.00000000	          0.00000000	          0.00000000	          0.00000000	
          1.25000000	        -50.60152877	        385.59312051	         -6.43490949	         -0.31671496	          0.00000000	         -0.05579768	         -0.00000000	          0.00000000	         -0.00000000	         -0.00000000	          0.00000000	         -0.00000000	          0.00000000	          1.65285708	          0.00000000	          0.00000000	          0.00000000	          0.00000000	
          1.25500000	        -58.82629266	        426.34168325	         -4.68662228	         -0.32930303	          0.00000000	         -0.05865293	         -0.00000000	          0.00000000	         -0.00000000	         -0.00000000	          0.00000000	         -0.00000000	          0.00000000	          1.84268431	          0.00000000	          0.00000000	          0.00000000	          0.00000000	
          1.26000000	        -66.28342327	        462.26333422	         -2.34822371	         -0.33576293	          0.00000000	         -0.06066705	         -0.00000000	         -0.00000000	         -0.00000000	         -0.00000000	          0.00000000	         -0.00000000	          0.00000000	          2.00023034	          0.00000000	          0.00000000	          0.00000000	          0.00000000	
          1.26500000	        -72.99532084	        493.72097159	          0.50886638	         -0.33760013	          0.00000000	         -0.06198246	         -0.00000000	         -0.00000001	         -0.00000000	         -0.00000000	          0.00000000	         -0.00000000	          0.00000000	          2.12326098	          0.00000000	          0.00000000	          0.00000000	          0.00000000	
          1.27000000	        -79.14888709	        521.34406931	          3.78981595	         -0.33613779	          0.00000000	         -0.06273516	         -0.00000000	         -0.00000001	         -0.00000000	         -0.00000000	          0.00000000	         -0.00000000	          0.00000000	          2.21276547	          0.00000000	          0.00000000	         -0.00000000	          0.00000000	
          1.27500000	        -84.94809939	        545.86257020	          7.37216859	         -0.33248382	          0.00000000	         -0.06304741	          0.00000000	         -0.00000002	         -0.00000000	         -0.00000000	          0.00000000	         -0.00000000	          0.00000000	          2.27283787	          0.00000000	          0.00000000	         -0.00000000	          0.00000000	
          1.28000000	        -90.52035524	        568.04006102	         11.13079901	         -0.32752377	          0.00000000	         -0.06302661	          0.00000000	         -0.00000003	         -0.00000000	         -0.00000000	          0.00000000	         -0.00000000	          0.00000000	          2.30979353	          0.00000000	          0.00000000	         -0.00000000	          0.00000000	
          1.28500000	        -95.90415204	        588.60777457	         14.97849367	         -0.32193247	          0.00000000	         -0.06276674	          0.00000000	         -0.00000004	         -0.00000000	         -0.00000000	          0.00000000	         -0.00000000	          0.00000000	          2.33092618	          0.00000000	          0.00000000	         -0.00000000	          0.00000000	
          1.29000000	       -101.07485987	        608.17476154	         18.87031196	         -0.31619661	          0.00000000	         -0.06234927	          0.00000000	         -0.00000005	         -0.00000000	         -0.00000000	          0.00000000	         -0.00000000	          0.00000000	          2.34310881	          0.00000000	          0.00000000	         -0.00000000	          0.00000000	
          1.29500000	       -105.96960026	        627.14604243	         22.79457444	         -0.31064531	          0.00000000	         -0.06184479	          0.00000000	         -0.00000006	         -0.00000000	         -0.00000000	          0.00000000	         -0.00000000	          0.00000000	          2.35180430	          0.00000000	          0.00000000	         -0.00000000	          0.00000000	
          1.30000000	       -110.49774318	        645.70453347	         26.76502556	         -0.30548143	          0.00000000	         -0.06131297	          0.00000001	         -0.00000007	         -0.00000000	         -0.00000000	          0.00000000	         -0.00000000	          0.00000000	          2.36034750	          0.00000000	          0.00000000	         -0.00000000	          0.00000000	
          1.30500000	       -114.55101795	        663.86432146	         30.79979581	         -0.30080974	          0.00000000	         -0.06080172	          0.00000001	         -0.00000008	         -0.00000000	         -0.00000000	          0.00000000	         -0.00000000	          0.00000000	          2.37141061	          0.00000000	          0.00000000	         -0.00000000	          0.00000000	
          1.31000000	       -118.02076001	        681.54313076	         34.89600332	         -0.29666099	          0.00000000	         -0.06034666	          0.00000001	         -0.00000009	         -0.00000000	         -0.00000000	          0.00000000	         -0.00000000	          0.00000000	          2.38889498	          0.00000000	          0.00000000	         -0.00000000	          0.00000000	
          1.31500000	       -120.81281663	        698.61651749	         39.01653072	         -0.29301451	          0.00000000	         -0.05997334	          0.00000001	         -0.00000008	         -0.00000000	         -0.00000000	          0.00000000	         -0.00000000	          0.00000000	          2.41842668	          0.00000000	          0.00000000	         -0.00000000	          0.00000000	
